<svg width="263" height="235" viewBox="0 0 263 235" fill="none" xmlns="http://www.w3.org/2000/svg">
<g clip-path="url(#clip0_6_732)">
<path d="M37.5093 47.8097C37.1207 47.8093 36.7481 47.644 36.4733 47.3503C36.1985 47.0566 36.0439 46.6584 36.0434 46.243V43.1095C36.0434 42.6939 36.1979 42.2954 36.4728 42.0016C36.7477 41.7078 37.1205 41.5427 37.5093 41.5427C37.8981 41.5427 38.2709 41.7078 38.5458 42.0016C38.8207 42.2954 38.9752 42.6939 38.9752 43.1095V46.243C38.9747 46.6584 38.8201 47.0566 38.5453 47.3503C38.2705 47.644 37.8979 47.8093 37.5093 47.8097V47.8097Z" fill="#3F3D56"/>
<path d="M37.5093 63.8773C37.1207 63.8769 36.7481 63.7116 36.4733 63.4179C36.1985 63.1242 36.0439 62.726 36.0434 62.3106V53.685C36.0434 53.2695 36.1979 52.871 36.4728 52.5772C36.7477 52.2834 37.1205 52.1183 37.5093 52.1183C37.8981 52.1183 38.2709 52.2834 38.5458 52.5772C38.8207 52.871 38.9752 53.2695 38.9752 53.685V62.3106C38.9747 62.726 38.8201 63.1242 38.5453 63.4179C38.2705 63.7116 37.8979 63.8769 37.5093 63.8773V63.8773Z" fill="#3F3D56"/>
<path d="M37.5093 76.7946C37.1207 76.7942 36.7481 76.629 36.4733 76.3352C36.1985 76.0415 36.0439 75.6433 36.0434 75.2279V66.6023C36.0434 66.1868 36.1979 65.7883 36.4728 65.4945C36.7477 65.2007 37.1205 65.0356 37.5093 65.0356C37.8981 65.0356 38.2709 65.2007 38.5458 65.4945C38.8207 65.7883 38.9752 66.1868 38.9752 66.6023V75.2279C38.9747 75.6433 38.8201 76.0415 38.5453 76.3352C38.2705 76.629 37.8979 76.7942 37.5093 76.7946V76.7946Z" fill="#3F3D56"/>
<path d="M157.709 69.7442C157.321 69.7438 156.948 69.5785 156.673 69.2848C156.399 68.9911 156.244 68.5929 156.243 68.1775V47.1308C156.243 46.7152 156.398 46.3167 156.673 46.0229C156.948 45.7291 157.321 45.564 157.709 45.564C158.098 45.564 158.471 45.7291 158.746 46.0229C159.021 46.3167 159.175 46.7152 159.175 47.1308V68.1775C159.175 68.5929 159.02 68.9911 158.745 69.2848C158.471 69.5785 158.098 69.7438 157.709 69.7442V69.7442Z" fill="#3F3D56"/>
<path d="M104.157 59.7679H91.4284C89.6666 59.7657 87.9775 59.0167 86.7316 57.6852C85.4858 56.3536 84.785 54.5482 84.7831 52.6651V39.0608C84.785 37.1777 85.4858 35.3723 86.7316 34.0407C87.9775 32.7092 89.6666 31.9601 91.4284 31.958H104.157C105.918 31.9601 107.608 32.7091 108.853 34.0407C110.099 35.3723 110.8 37.1777 110.802 39.0608V52.6651C110.8 54.5482 110.099 56.3536 108.853 57.6852C107.608 59.0167 105.918 59.7657 104.157 59.7679V59.7679ZM91.4284 32.7414C89.8609 32.7433 88.3581 33.4097 87.2497 34.5944C86.1413 35.7791 85.5178 37.3854 85.516 39.0608V52.6651C85.5178 54.3405 86.1413 55.9467 87.2497 57.1314C88.3581 58.3161 89.8609 58.9826 91.4284 58.9845H104.157C105.724 58.9826 107.227 58.3161 108.335 57.1314C109.444 55.9467 110.067 54.3405 110.069 52.6651V39.0608C110.067 37.3854 109.444 35.7791 108.335 34.5944C107.227 33.4097 105.724 32.7433 104.157 32.7414L91.4284 32.7414Z" fill="#E6E6E6"/>
<path d="M139.883 220.241H54.6769C52.734 220.239 50.8713 219.536 49.4975 218.285C48.1237 217.034 47.3508 215.337 47.3486 213.568V197.033C47.3508 195.264 48.1237 193.568 49.4975 192.317C50.8713 191.066 52.734 190.362 54.6769 190.36H139.883C141.826 190.362 143.688 191.066 145.062 192.317C146.436 193.568 147.209 195.264 147.211 197.033V213.568C147.209 215.337 146.436 217.034 145.062 218.285C143.688 219.536 141.826 220.239 139.883 220.241V220.241ZM54.6769 191.009C52.9231 191.011 51.2417 191.646 50.0016 192.776C48.7615 193.905 48.0639 195.436 48.0619 197.033V213.568C48.0639 215.165 48.7615 216.696 50.0016 217.826C51.2417 218.955 52.9231 219.59 54.6769 219.592H139.883C141.637 219.59 143.318 218.955 144.558 217.826C145.798 216.696 146.496 215.165 146.498 213.568V197.033C146.496 195.436 145.798 193.905 144.558 192.776C143.318 191.646 141.637 191.011 139.883 191.009H54.6769Z" fill="#E6E6E6"/>
<path d="M217.723 51.408C216.993 51.5291 216.335 51.95 215.891 52.5813C215.446 53.2126 215.25 54.0044 215.343 54.7883C215.364 54.9473 215.398 55.1041 215.443 55.2572L207.565 61.667L209.202 67.0839L219.105 57.0563C219.685 56.8054 220.17 56.3566 220.486 55.7799C220.801 55.2032 220.929 54.5311 220.85 53.8685C220.801 53.4919 220.684 53.1292 220.504 52.8011C220.324 52.4731 220.086 52.1861 219.802 51.9565C219.519 51.7269 219.196 51.5592 218.852 51.4631C218.508 51.3669 218.149 51.3442 217.797 51.3961C217.772 51.3997 217.748 51.4037 217.723 51.408Z" fill="#FFB6B6"/>
<path d="M163.378 81.1261C163.428 82.4533 163.962 83.7069 164.865 84.6194C165.768 85.532 166.969 86.0314 168.212 86.011L183.086 85.7677L201.895 76.4439C201.895 76.4439 208.029 70.8793 209.739 70.7483C211.449 70.6172 212.36 72.3179 211.972 70.7652C211.585 69.2124 211.072 68.1729 212.386 68.3179C213.701 68.4629 213.492 65.5974 213.782 64.5135C214.073 63.4296 210.075 59.5178 210.075 59.5178C210.075 59.5178 207.194 59.5774 207.006 59.982C206.817 60.3866 207.473 61.4061 205.925 61.3625C204.377 61.3188 203.194 61.3885 203.146 62.1568C203.098 62.9251 203.211 63.524 202.353 64.1191C201.495 64.7141 197.622 67.7819 197.622 67.7819L166.982 75.9778C165.919 76.2621 164.98 76.9294 164.323 77.8671C163.667 78.8049 163.333 79.9559 163.378 81.1261V81.1261Z" fill="#3F3D56"/>
<path d="M171.342 225.751H175.387L177.312 209.076H171.342V225.751Z" fill="#FFB6B6"/>
<path d="M170.022 222.79L176.484 222.378V225.337L182.628 229.872C182.931 230.096 183.16 230.418 183.28 230.791C183.4 231.163 183.406 231.567 183.296 231.944C183.187 232.32 182.967 232.649 182.67 232.882C182.373 233.116 182.014 233.242 181.645 233.242H173.952L172.625 230.315L172.108 233.242H169.207L170.022 222.79Z" fill="#2F2E41"/>
<path d="M178.097 118.913L180.296 104.42L164.905 100.503V115.517L178.097 118.913Z" fill="#FFB6B6"/>
<path d="M158.858 132.818L166.383 185.099C166.383 185.099 165.94 207.821 169.362 213.014L170.218 218.597H177.938C177.938 218.597 177.796 215.168 178.588 213.162C179.38 211.155 180.479 212.485 179.38 210.645C178.28 208.805 178.163 209.009 178.588 207.536C179.013 206.063 179.262 139.29 179.262 139.29L158.858 132.818Z" fill="#2F2E41"/>
<path d="M163.441 200.075L165.785 203.598L179.616 195.612L176.157 190.412L163.441 200.075Z" fill="#FFB6B6"/>
<path d="M164.934 197.209L168.993 202.599L166.737 204.314L166.839 212.294C166.844 212.688 166.731 213.073 166.517 213.394C166.302 213.715 165.997 213.954 165.647 214.076C165.296 214.199 164.918 214.198 164.568 214.075C164.218 213.951 163.914 213.712 163.7 213.39L159.242 206.689L160.705 203.837L158.173 205.082L156.492 202.556L164.934 197.209Z" fill="#2F2E41"/>
<path d="M164.172 106.771L164.067 112.836C164.067 112.836 150.157 125.883 160.645 141.787C160.645 141.787 161.967 146.365 163.802 146.152C165.637 145.939 166.572 147.034 166.105 148.053C165.637 149.073 183.47 161.477 183.47 161.477C183.47 161.477 171.716 189.174 168.936 195.292L170.768 201.559C170.768 201.559 169.797 203.983 171.29 203.065C172.783 202.146 172.049 202.021 173.699 201.692C175.349 201.363 177.382 200.607 177.282 200.202C177.181 199.796 197.798 165.702 197.798 165.702C197.798 165.702 202.738 160.085 199.121 153.502C198.619 153.381 198.606 153.502 198.606 153.502L180.925 131.981L178.83 117.738L164.172 106.771Z" fill="#2F2E41"/>
<path d="M180.078 67.8858L171.171 63.4243L168.505 68.3833C168.505 68.3833 161.344 79.3061 161.24 87.1861C161.136 95.0662 162.407 97.4095 162.407 97.4095C162.407 97.4095 159.319 99.8768 160.863 101.385C162.407 102.893 165.825 103.544 163.2 104.198C160.575 104.852 161.24 111.471 164.172 112.646C167.103 113.821 182.848 113.811 182.848 113.811C182.707 113.297 182.696 112.753 182.818 112.234C182.94 111.715 183.189 111.241 183.541 110.859C184.761 109.552 185.861 110.49 184.761 108.454C183.662 106.418 181.829 107.593 183.295 104.852C184.761 102.11 184.761 101.29 184.761 101.29C184.761 101.29 188.331 94.7096 183.248 88.6174C178.165 82.5253 183.204 88.2 183.204 88.2L179.57 75.182L180.078 67.8858Z" fill="#3F3D56"/>
<path d="M216.16 106.379H203.432C201.768 106.377 200.172 105.669 198.994 104.411C197.817 103.153 197.155 101.447 197.153 99.6678V86.0635C197.155 84.2842 197.817 82.5784 198.994 81.3203C200.172 80.0621 201.768 79.3544 203.432 79.3524H216.16C217.825 79.3544 219.421 80.0621 220.598 81.3203C221.775 82.5784 222.437 84.2842 222.439 86.0635V99.6678C222.437 101.447 221.775 103.153 220.598 104.411C219.421 105.669 217.825 106.377 216.16 106.379V106.379Z" fill="#6C63FF"/>
<path d="M188.313 62.6964L188.32 62.6955C188.731 62.6434 189.106 62.419 189.362 62.0716C189.618 61.7243 189.735 61.2825 189.686 60.8433L188.666 51.6022C188.485 49.9463 187.994 48.3463 187.223 46.8973C185.713 44.0701 183.241 41.9745 180.322 41.0472C178.815 40.5705 177.234 40.4248 175.673 40.619C169.286 41.4133 167.278 43.3296 165.455 54.4164C163.632 65.5031 166.476 63.6716 166.476 63.6716C166.501 63.8944 166.567 64.1096 166.671 64.3045C166.874 64.6845 167.207 64.9659 167.6 65.0898C167.801 65.1532 168.013 65.1726 168.221 65.1469C176.023 65.4647 183.913 65.8729 188.314 62.6963L188.313 62.6964Z" fill="#2F2E41"/>
<path d="M171.479 50.5555C170.845 52.2368 170.69 54.0814 171.036 55.8563C171.381 57.6312 172.211 59.2569 173.421 60.528C174.63 61.7991 176.165 62.6586 177.831 62.998C179.498 63.3374 181.22 63.1414 182.783 62.4347C183.817 61.9707 184.756 61.2918 185.543 60.4374C186.331 59.583 186.952 58.5701 187.371 57.4573C188.003 55.777 188.157 53.934 187.811 52.1608C187.465 50.3875 186.636 48.7634 185.428 47.4931C184.22 46.2229 182.687 45.3634 181.022 45.0231C179.358 44.6827 177.636 44.8767 176.074 45.5807C175.039 46.0436 174.099 46.7218 173.31 47.5758C172.521 48.4299 171.899 49.4428 171.479 50.5559L171.479 50.5555Z" fill="#FFB6B6"/>
<path d="M191.491 52.0085C191.348 50.6989 190.96 49.4335 190.35 48.2875C189.663 45.2998 188.302 42.7629 184.893 43.6621C183.709 43.288 182.466 43.1723 181.239 43.3219L179.508 43.5308C179.489 43.5331 179.469 43.5355 179.45 43.538C177.03 43.8447 174.823 45.1663 173.315 47.212C171.807 49.2578 171.12 51.8601 171.407 54.4465L171.428 54.6316L175.09 54.1859L175.927 50.3011L176.589 54.0042L178.481 53.7748L178.903 51.8149L179.237 53.6819C182.507 55.6424 186.705 54.8239 191.51 52.1941L191.491 52.0085Z" fill="#2F2E41"/>
<path d="M181.737 63.2302C181.827 63.5217 181.839 63.8345 181.771 64.1329C181.738 64.2855 181.684 64.4323 181.612 64.569C181.551 64.6855 181.477 64.7939 181.391 64.8918C181.138 65.1809 180.797 65.3643 180.429 65.409C180.406 65.4116 180.383 65.4138 180.36 65.4156C180.337 65.4173 180.314 65.4185 180.291 65.4191C180.268 65.4199 180.244 65.4201 180.221 65.4196C180.198 65.419 180.174 65.418 180.151 65.4166L178.824 65.328L176.583 61.467L176.996 65.2102L170.963 64.8183L169.21 48.9339L179.119 47.7361L178.908 48.0709C178.208 49.1931 177.811 50.5001 177.761 51.8478C177.717 53.2121 177.892 54.5744 178.278 55.8756C178.659 57.1934 179.158 58.4691 179.767 59.685C180.302 60.7629 180.894 61.807 181.541 62.812C181.624 62.9409 181.69 63.0817 181.737 63.2302V63.2302Z" fill="#2F2E41"/>
<path d="M205.061 77.8945C204.374 78.1844 203.819 78.7496 203.515 79.47C203.211 80.1904 203.183 81.009 203.435 81.7517C203.488 81.9018 203.553 82.0469 203.629 82.1856L197.264 90.2908L199.975 95.1902L207.572 83.0794C208.086 82.6984 208.467 82.1465 208.656 81.5097C208.845 80.873 208.831 80.1872 208.618 79.5595C208.493 79.2036 208.303 78.8774 208.061 78.5996C207.818 78.3219 207.526 78.0979 207.202 77.9406C206.879 77.7833 206.529 77.6958 206.173 77.6829C205.818 77.67 205.464 77.7321 205.131 77.8656C205.107 77.8749 205.084 77.8845 205.061 77.8945Z" fill="#FFB6B6"/>
<path d="M171.722 76.2687C171.081 76.5783 170.51 77.032 170.047 77.5988C169.585 78.1655 169.242 78.8321 169.042 79.5532C168.842 80.2743 168.789 81.033 168.888 81.7776C168.987 82.5223 169.235 83.2354 169.615 83.8686L175.715 94.0407L190.007 107.75C190.007 107.75 201.734 98.7409 202.101 95.6074C202.467 92.4739 201.368 91.6905 202.467 92.4739C203.566 93.2573 204.666 92.8656 204.299 92.4739C203.933 92.0822 204.077 92.0576 204.371 91.4824C204.666 90.9072 205.765 88.1654 205.765 88.1654L201.871 84.0526C201.871 84.0526 197.703 86.2069 197.337 87.382C196.97 88.557 198.436 88.1654 196.97 88.557C195.504 88.9487 193.546 87.1723 195.075 89.0397C196.604 90.9072 196.478 91.7183 195.075 91.7044C193.672 91.6905 191.107 95.6074 191.107 95.6074L177.546 77.7419C176.864 76.8433 175.922 76.2114 174.869 75.9448C173.815 75.6783 172.709 75.7922 171.722 76.2687V76.2687Z" fill="#3F3D56"/>
<path d="M258.27 23.5519L223.859 -0.398499C223.615 -0.568404 223.295 -0.662742 222.963 -0.66272C222.631 -0.662698 222.311 -0.568315 222.067 -0.398377L206.333 10.5563V5.6958C206.333 5.43156 206.193 5.17812 205.946 4.99128C205.698 4.80443 205.362 4.69948 205.011 4.69948H202.369C202.018 4.69948 201.682 4.80443 201.434 4.99128C201.186 5.17812 201.047 5.43156 201.047 5.6958V14.2362L187.667 23.552C187.472 23.688 187.335 23.8652 187.276 24.0605C187.216 24.2559 187.236 24.4602 187.333 24.6469C187.43 24.8335 187.599 24.9939 187.819 25.1069C188.038 25.2199 188.298 25.2803 188.564 25.2803H195.188C195.538 25.2803 195.874 25.3853 196.122 25.5722C196.37 25.759 196.509 26.0124 196.509 26.2766V50.5768C196.509 50.841 196.648 51.0945 196.896 51.2813C197.144 51.4682 197.48 51.5731 197.83 51.5731H248.095C248.445 51.5731 248.782 51.4682 249.029 51.2813C249.277 51.0945 249.416 50.841 249.416 50.5768V26.2766C249.416 26.0124 249.556 25.759 249.803 25.5721C250.051 25.3853 250.387 25.2803 250.738 25.2803H257.374C257.64 25.2803 257.9 25.2199 258.119 25.1068C258.339 24.9938 258.508 24.8335 258.605 24.6468C258.702 24.4601 258.721 24.2557 258.662 24.0604C258.602 23.8651 258.466 23.6879 258.27 23.5519V23.5519ZM215.563 34.038H230.362C230.713 34.038 231.049 34.143 231.297 34.3299C231.544 34.5167 231.684 34.7701 231.684 35.0343V49.5806H214.242V35.0343C214.242 34.7701 214.381 34.5167 214.629 34.3299C214.877 34.143 215.213 34.038 215.563 34.038Z" fill="#F50057"/>
<path d="M134.728 1.10938H59.8316C48.1829 1.10938 38.7398 11.4045 38.7398 24.1043V210.693C38.7398 223.393 48.1829 233.688 59.8316 233.688H134.728C146.377 233.688 155.82 223.393 155.82 210.693V24.1043C155.82 11.4045 146.377 1.10938 134.728 1.10938Z" fill="#3F3D56"/>
<path d="M149.363 26.5952V205.712C149.358 211.017 147.471 216.102 144.116 219.853C140.762 223.604 136.214 225.714 131.47 225.72H61.3681C56.6242 225.714 52.0761 223.604 48.7216 219.853C45.3671 216.102 43.4801 211.017 43.4746 205.712V26.5952C43.4801 21.2908 45.3671 16.2053 48.7216 12.4545C52.0761 8.7037 56.6242 6.59379 61.3681 6.58765H70.5351V10.1283C70.5352 11.7313 71.1047 13.2685 72.1184 14.402C73.132 15.5354 74.5069 16.1722 75.9404 16.1723H116.898C118.331 16.1722 119.706 15.5354 120.72 14.402C121.733 13.2685 122.303 11.7313 122.303 10.1283V6.58765H131.47C136.214 6.59379 140.762 8.7037 144.116 12.4545C147.471 16.2053 149.358 21.2908 149.363 26.5952Z" fill="white"/>
<path d="M100.941 7.79713H89.5811C89.3381 7.79713 89.105 7.69396 88.9332 7.51032C88.7614 7.32668 88.6649 7.07761 88.6649 6.8179C88.6649 6.5582 88.7614 6.30913 88.9332 6.12549C89.105 5.94185 89.3381 5.83868 89.5811 5.83868H100.941C101.184 5.83868 101.417 5.94185 101.589 6.12549C101.761 6.30913 101.858 6.5582 101.858 6.8179C101.858 7.07761 101.761 7.32668 101.589 7.51032C101.417 7.69396 101.184 7.79713 100.941 7.79713Z" fill="white"/>
<path d="M69.0124 215.759H58.8289C57.497 215.758 56.2201 215.262 55.2783 214.381C54.3365 213.5 53.8067 212.306 53.8052 211.06V201.534C53.8067 200.288 54.3365 199.093 55.2783 198.212C56.2201 197.331 57.497 196.836 58.8289 196.834H69.0124C70.3443 196.836 71.6212 197.331 72.563 198.212C73.5048 199.093 74.0345 200.288 74.036 201.534V211.06C74.0345 212.306 73.5048 213.5 72.563 214.381C71.6212 215.262 70.3443 215.758 69.0124 215.759Z" fill="#6C63FF"/>
<path d="M132.074 215.759H121.457C120.068 215.758 118.737 215.236 117.755 214.309C116.773 213.381 116.221 212.124 116.219 210.813V200.785C116.221 199.473 116.773 198.216 117.755 197.289C118.737 196.361 120.068 195.84 121.457 195.838H132.074C133.462 195.84 134.793 196.361 135.775 197.289C136.757 198.216 137.309 199.473 137.311 200.785V210.813C137.309 212.124 136.757 213.381 135.775 214.309C134.793 215.236 133.462 215.758 132.074 215.759V215.759Z" fill="#6C63FF"/>
<path d="M99.36 215.261H88.7431C87.3545 215.26 86.0233 214.764 85.0414 213.883C84.0596 213.002 83.5073 211.808 83.5057 210.562V201.036C83.5073 199.79 84.0596 198.595 85.0414 197.714C86.0233 196.833 87.3545 196.338 88.7431 196.336H99.36C100.749 196.338 102.08 196.833 103.062 197.714C104.044 198.595 104.596 199.79 104.597 201.036V210.562C104.596 211.808 104.044 213.002 103.062 213.883C102.08 214.764 100.749 215.26 99.36 215.261V215.261Z" fill="#6C63FF"/>
<path d="M108.467 44.0329L98.0423 33.5963C97.9683 33.5222 97.8714 33.4811 97.7707 33.4811C97.6701 33.4811 97.5731 33.5223 97.4992 33.5963L92.7327 38.3699V36.2519C92.7327 36.1368 92.6905 36.0263 92.6154 35.9449C92.5403 35.8635 92.4385 35.8178 92.3324 35.8178H91.5318C91.4256 35.8178 91.3237 35.8635 91.2487 35.9449C91.1736 36.0263 91.1314 36.1368 91.1314 36.2519V39.9735L87.078 44.0329C87.0188 44.0922 86.9775 44.1694 86.9595 44.2545C86.9414 44.3396 86.9474 44.4287 86.9768 44.51C87.0061 44.5914 87.0574 44.6612 87.1239 44.7105C87.1904 44.7597 87.269 44.7861 87.3496 44.7861H89.3563C89.4625 44.7861 89.5643 44.8318 89.6394 44.9132C89.7144 44.9946 89.7566 45.1051 89.7566 45.2202V55.8092C89.7566 55.9244 89.7988 56.0348 89.8739 56.1162C89.9489 56.1977 90.0508 56.2434 90.1569 56.2434H105.384C105.491 56.2434 105.592 56.1977 105.668 56.1162C105.743 56.0348 105.785 55.9244 105.785 55.8092V45.2202C105.785 45.1051 105.827 44.9946 105.902 44.9132C105.977 44.8318 106.079 44.7861 106.185 44.7861H108.196C108.276 44.7861 108.355 44.7597 108.421 44.7105C108.488 44.6612 108.539 44.5913 108.568 44.51C108.598 44.4286 108.604 44.3396 108.586 44.2545C108.568 44.1693 108.526 44.0921 108.467 44.0329V44.0329ZM95.529 48.6023H100.012C100.119 48.6023 100.22 48.6481 100.295 48.7295C100.371 48.8109 100.413 48.9213 100.413 49.0365V55.3751H95.1287V49.0365C95.1287 48.9213 95.1709 48.8109 95.246 48.7295C95.321 48.6481 95.4228 48.6023 95.529 48.6023Z" fill="#F50057"/>
<path d="M97.7093 69.8372C94.8844 69.8385 92.0869 69.254 89.4765 68.117C86.8661 66.98 84.494 65.3127 82.4956 63.2104C80.4972 61.1081 78.9116 58.612 77.8294 55.8645C76.7472 53.117 76.1895 50.1719 76.1882 47.1975V47.1771C76.1882 47.1295 76.1882 47.0797 76.1907 47.0321C76.2179 42.5566 77.5031 38.1898 79.8843 34.4825C82.2655 30.7751 85.636 27.8933 89.5708 26.2003C93.5055 24.5074 97.8283 24.0792 101.994 24.9699C106.159 25.8605 109.981 28.03 112.977 31.2047C115.973 34.3795 118.009 38.4173 118.829 42.8089C119.648 47.2005 119.214 51.7493 117.581 55.8815C115.948 60.0136 113.19 63.5441 109.654 66.0277C106.118 68.5113 101.962 69.8367 97.7118 69.8368H97.7093V69.8372ZM97.7093 24.9937C92.1472 25.0069 86.8148 27.3306 82.8707 31.46C78.9266 35.5893 76.6894 41.1906 76.6452 47.0468C76.6427 47.0974 76.6427 47.139 76.6427 47.1767C76.6424 51.5644 77.8778 55.8537 80.1927 59.5021C82.5076 63.1505 85.798 65.9942 89.6479 67.6736C93.4977 69.3529 97.734 69.7926 101.821 68.9369C105.908 68.0812 109.663 65.9686 112.609 62.8662C115.556 59.7638 117.563 55.8111 118.376 51.5077C119.19 47.2044 118.773 42.7438 117.178 38.69C115.584 34.6362 112.884 31.1712 109.419 28.7333C105.954 26.2954 101.881 24.994 97.7136 24.9937H97.7093V24.9937Z" fill="#E4E4E4"/>
<path d="M59.6671 158.827H59.6671C59.5422 158.827 59.4191 158.791 59.3088 158.722C59.1984 158.653 59.1041 158.553 59.0341 158.432C58.964 158.31 58.9204 158.17 58.9071 158.024C58.8937 157.878 58.911 157.73 58.9574 157.593L59.84 155H53.8052V160.711C53.8052 160.829 53.825 160.946 53.8634 161.055C53.9018 161.164 53.9582 161.263 54.0291 161.347C54.1001 161.43 54.1844 161.496 54.2771 161.542C54.3699 161.587 54.4693 161.61 54.5697 161.61H55.4071C55.6098 161.61 55.8042 161.705 55.9476 161.873C56.0909 162.042 56.1715 162.271 56.1715 162.509V166.151C56.1715 166.354 56.2296 166.55 56.3365 166.709C56.4434 166.868 56.5927 166.98 56.7603 167.026C56.9279 167.073 57.1039 167.052 57.2599 166.966C57.4158 166.88 57.5426 166.735 57.6196 166.553L60.3508 160.128C60.4091 159.991 60.4366 159.839 60.4307 159.686C60.4249 159.532 60.3858 159.384 60.3173 159.253C60.2489 159.123 60.1532 159.015 60.0393 158.941C59.9255 158.866 59.7974 158.827 59.6671 158.827V158.827Z" fill="#F50057"/>
<path d="M60.087 153.506L60.2094 153.041C60.2539 152.872 60.2705 152.689 60.2577 152.508C60.2448 152.327 60.203 152.154 60.1359 152.003C60.0687 151.852 59.9783 151.729 59.8725 151.644C59.7667 151.558 59.6487 151.514 59.5289 151.514H54.5382C54.3438 151.514 54.1574 151.631 54.0199 151.84C53.8825 152.049 53.8052 152.332 53.8052 152.627V153.506H60.087Z" fill="#F50057"/>
<path d="M135.589 158.984H63.275V160.478H135.589V158.984Z" fill="#E6E6E6"/>
<path d="M98.2814 162.901C99.7855 162.901 101.005 161.467 101.005 159.697C101.005 157.928 99.7855 156.494 98.2814 156.494C96.7774 156.494 95.5581 157.928 95.5581 159.697C95.5581 161.467 96.7774 162.901 98.2814 162.901Z" fill="#F50057"/>
<path d="M95.5894 158.984H63.7054V160.335H95.5894V158.984Z" fill="#F50057"/>
<path d="M136.881 136.075H64.9967V137.569H136.881V136.075Z" fill="#E6E6E6"/>
<path d="M119.232 135.577H63.7054V137.071H119.232V135.577Z" fill="#F50057"/>
<path d="M121.956 138.995C123.46 138.995 124.679 137.561 124.679 135.792C124.679 134.023 123.46 132.589 121.956 132.589C120.452 132.589 119.232 134.023 119.232 135.792C119.232 137.561 120.452 138.995 121.956 138.995Z" fill="#F50057"/>
<path opacity="0.999" d="M136.881 113.166H64.9967V114.66H136.881V113.166Z" fill="#E6E6E6"/>
<path d="M95.5894 113.166H63.7054V114.517H95.5894V113.166Z" fill="#F50057"/>
<path d="M97.851 117.082C99.3551 117.082 100.574 115.648 100.574 113.879C100.574 112.11 99.3551 110.675 97.851 110.675C96.3469 110.675 95.1276 112.11 95.1276 113.879C95.1276 115.648 96.3469 117.082 97.851 117.082Z" fill="#F50057"/>
<path d="M61.9859 110.211C62.0144 110.797 61.9409 111.383 61.77 111.934C61.5991 112.485 61.3344 112.989 60.992 113.415C60.6496 113.842 60.2368 114.182 59.7789 114.414C59.321 114.646 58.8276 114.766 58.329 114.766C57.8304 114.766 57.337 114.646 56.8791 114.414C56.4212 114.182 56.0084 113.842 55.666 113.415C55.3237 112.989 55.0589 112.485 54.888 111.934C54.7171 111.383 54.6436 110.797 54.6721 110.211C54.6721 107.696 58.1139 105.15 58.1139 100.596C58.1139 98.2199 61.9859 107.696 61.9859 110.211Z" fill="#F50057"/>
<path d="M60.7803 110.198C60.7974 110.55 60.7533 110.901 60.6507 111.232C60.5482 111.563 60.3893 111.865 60.1838 112.121C59.9784 112.377 59.7307 112.581 59.4559 112.72C59.1812 112.859 58.8851 112.931 58.5859 112.931C58.2867 112.931 57.9906 112.859 57.7159 112.72C57.4411 112.581 57.1934 112.377 56.988 112.121C56.7825 111.865 56.6236 111.563 56.5211 111.232C56.4185 110.901 56.3744 110.55 56.3915 110.198C56.3915 108.689 58.4568 107.162 58.4568 104.428C58.4568 103.003 60.7803 108.689 60.7803 110.198Z" fill="white"/>
<path d="M60.2243 132.066V123.46C60.2243 122.975 60.0469 122.51 59.731 122.167C59.4152 121.825 58.9868 121.632 58.5401 121.632C58.0934 121.632 57.665 121.825 57.3492 122.167C57.0333 122.51 56.8559 122.975 56.8559 123.46V132.066C56.1915 132.471 55.6694 133.103 55.3712 133.863C55.0731 134.624 55.0158 135.471 55.2084 136.27C55.4009 137.07 55.8324 137.778 56.4353 138.284C57.0381 138.789 57.7784 139.063 58.5401 139.063C59.3018 139.063 60.0421 138.789 60.6449 138.284C61.2478 137.778 61.6793 137.07 61.8718 136.27C62.0643 135.471 62.0071 134.624 61.709 133.863C61.4108 133.103 60.8887 132.471 60.2243 132.066V132.066Z" fill="#F50057"/>
<path d="M58.1097 123.558C58.1235 123.304 58.1975 123.068 58.317 122.896C58.4366 122.724 58.593 122.628 58.7553 122.628C58.9176 122.628 59.0741 122.724 59.1936 122.896C59.3132 123.068 59.3872 123.304 59.401 123.558V132.589H58.1097V123.558Z" fill="white"/>
</g>
<defs>
<clipPath id="clip0_6_732">
<rect width="263" height="233.575" fill="white" transform="translate(0 0.611328)"/>
</clipPath>
</defs>
</svg>
